<?xml version="1.0" encoding="UTF-8"?>
<svg width="154px" height="32px" viewBox="0 0 154 32" version="1.1" xmlns="http://www.w3.org/2000/svg" xmlns:xlink="http://www.w3.org/1999/xlink">
    <defs>
        <rect id="path-1" x="0" y="-1.21807326e-13" width="35.3076923" height="30"></rect>
        <linearGradient x1="-41.4632842%" y1="19.8112892%" x2="79.5179027%" y2="83.5328722%" id="linearGradient-3">
            <stop stop-color="#A5E2FF" offset="0%"></stop>
            <stop stop-color="#003EDF" offset="100%"></stop>
        </linearGradient>
        <linearGradient x1="-34.2832225%" y1="-38.449807%" x2="94.7426185%" y2="91.3863999%" id="linearGradient-4">
            <stop stop-color="#A5E2FF" offset="0%"></stop>
            <stop stop-color="#003EDF" offset="100%"></stop>
        </linearGradient>
    </defs>
    <g id="页面-1" stroke="none" stroke-width="1" fill="none" fill-rule="evenodd">
        <g id="无图表备份" transform="translate(-16.000000, -10.000000)">
            <g id="达观智能搜索logo备份" transform="translate(16.000000, 11.000000)">
                <rect id="矩形" x="4" y="0" width="180" height="30"></rect>
                <g id="编组-4">
                    <path d="M43.133914,0.627560359 L45.7250953,3.34862285 L44.7626565,4.81946745 L42.1714752,2.09840495 L43.133914,0.627560359 Z M44.022319,14.0857884 L42.9118127,16.0714286 L41.7272727,14.8212107 L42.837779,12.6149438 L42.837779,7.09927656 L42.0234077,7.09927656 L42.0234077,5.55488974 L44.6886228,5.55488974 L44.6886228,12.3207749 L46.7615678,14.2328728 L58.1627654,14.2328728 L58.1627654,15.8508019 L46.0212303,15.8508019 L44.022319,14.0857884 Z M52.5362003,7.6876144 L47.7980403,12.7620282 L46.7615678,11.5118103 L51.6477953,6.21676981 L51.6477953,4.59884076 L47.0577028,4.59884076 L47.0577028,2.98091171 L51.6477953,2.98091171 L51.6477953,0 L53.4986391,0.627560359 L53.4986391,2.98091171 L58.2367991,2.98091171 L58.2367991,4.59884076 L53.4986391,4.59884076 L53.4986391,6.21676981 L58.4589004,11.5118103 L57.3483941,12.7620282 L52.5362003,7.6876144 Z M73.2656505,15.8508019 L73.2656505,11.5853526 L75.0424605,11.5853526 L75.0424605,14.1593306 L77.1154056,14.1593306 L77.1154056,15.8508019 L73.2656505,15.8508019 Z M73.5617855,10.7028458 L69.563963,15.8508019 L67.787153,15.6301752 L71.7849755,10.2615924 L71.7849755,4.37821407 L73.5617855,4.37821407 L73.5617855,10.7028458 Z M68.4534567,0.848187048 L76.8933043,0.848187048 L76.8933043,10.776388 L75.1164943,10.776388 L75.1164943,2.4661161 L70.2302667,2.4661161 L70.2302667,10.6293036 L68.4534567,10.6293036 L68.4534567,0.848187048 Z M62.6047904,3.86341846 L66.9727817,14.8212107 L65.6401742,15.8508019 L61.2721829,4.9665519 L62.6047904,3.86341846 Z M60.9760479,14.8947529 L65.1959717,4.01050292 L65.1959717,2.68674279 L61.1241154,2.68674279 L61.1241154,1.06881374 L67.1208492,1.06881374 L67.1208492,3.716334 L62.2346217,15.8508019 L60.9760479,14.8947529 Z M81.4488478,3.64279177 L80.2643077,2.4661161 L81.0046453,0.627560359 L82.871067,0.627560359 L81.4488478,3.64279177 Z M94.0691345,6.14322758 L94.0691345,2.68674279 L91.3298857,2.68674279 L91.3298857,6.14322758 L94.0691345,6.14322758 Z M93.6989657,14.2328728 L93.6989657,13.1297394 L82.5939031,13.1297394 L82.5939031,14.2328728 L93.6989657,14.2328728 Z M82.5939031,10.3351347 L82.5939031,11.5118103 L93.6989657,11.5118103 L93.6989657,10.3351347 L82.5939031,10.3351347 Z M81.6314643,2.53965833 L81.6314643,1.06881374 L88.2204682,1.06881374 L88.2204682,2.53965833 L85.4071856,2.53965833 L85.4071856,3.78987623 L88.5166032,3.78987623 L88.5166032,5.18717859 L85.4071856,5.18717859 L85.4071856,5.7019742 L88.6646707,7.17281879 L87.4060969,8.12886778 L84.5187806,6.80510764 L81.2612956,8.20241001 L80.2248231,7.17281879 L83.5563419,5.7019742 L83.5563419,5.18717859 L80.3728906,5.18717859 L80.3728906,3.78987623 L83.5563419,3.78987623 L83.5563419,2.53965833 L81.6314643,2.53965833 Z M89.4790419,7.76115663 L89.4790419,1.06881374 L95.9199782,1.06881374 L95.9199782,7.76115663 L89.4790419,7.76115663 Z M80.7430593,15.8508019 L80.7430593,8.79074784 L95.5498095,8.79074784 L95.5498095,15.8508019 L80.7430593,15.8508019 Z M114.872618,14.3064151 L114.872618,15.8508019 L108.57975,15.8508019 L108.57975,8.71720561 L110.35656,9.34476597 L110.35656,11.2176414 L113.91018,9.4183082 L115.09472,10.5214416 L110.35656,13.1297394 L110.35656,14.3064151 L114.872618,14.3064151 Z M101.028307,8.42303669 L104.952096,8.42303669 L104.952096,7.09927656 L101.028307,7.09927656 L101.028307,8.42303669 Z M101.028307,11.3647259 L104.952096,11.3647259 L104.952096,9.96742352 L101.028307,9.96742352 L101.028307,11.3647259 Z M106.284703,1.2158982 L107.39521,4.15758738 L98.8072945,4.15758738 L100.658138,0.627560359 L102.434948,0.995271507 L101.620577,2.61320056 L104.878062,2.61320056 L104.581927,1.65715157 L106.284703,1.2158982 Z M114.872618,6.29031204 L114.872618,7.83469886 L108.57975,7.83469886 L108.57975,0.701102589 L110.35656,1.32866295 L110.35656,3.20153839 L113.836146,1.40220518 L115.09472,2.50533862 L110.35656,5.11363636 L110.35656,6.29031204 L114.872618,6.29031204 Z M104.952096,12.9826549 L101.028307,12.9826549 L101.028307,15.8508019 L99.251497,15.8508019 L99.251497,5.55488974 L106.80294,5.55488974 L106.80294,15.8508019 L104.137725,15.8508019 L104.137725,14.2328728 L104.952096,14.2328728 L104.952096,12.9826549 Z M124.052803,11.8795215 L126.051715,11.2176414 L134.343495,15.1889218 L132.418617,15.8508019 L124.052803,11.8795215 Z M127.828525,6.4373965 L127.828525,0.147084459 L129.531301,0.774644818 L129.531301,6.4373965 L132.196516,6.4373965 L132.196516,5.26072082 L130.863909,5.26072082 L130.863909,3.716334 L132.196516,3.716334 L132.196516,2.53965833 L130.863909,2.53965833 L130.863909,1.06881374 L133.973326,1.06881374 L133.973326,7.98178332 L129.531301,7.98178332 L129.531301,9.08491676 L133.45509,9.08491676 L133.45509,11.6588948 L124.793141,15.8508019 L123.090365,15.1153796 L131.752314,10.8499303 L131.752314,10.6293036 L123.904736,10.6293036 L123.904736,9.08491676 L127.828525,9.08491676 L127.828525,7.98178332 L123.534567,7.98178332 L123.534567,1.28944043 L125.607512,0.701102589 L127.014154,1.58360934 L125.237343,2.09840495 L125.237343,3.716334 L126.569951,3.716334 L126.569951,5.26072082 L125.237343,5.26072082 L125.237343,6.4373965 L127.828525,6.4373965 Z M117.537833,9.6732546 L122.20196,8.12886778 L122.572128,9.74679683 L117.833968,11.2911836 L117.537833,9.6732546 Z M117.833968,15.8508019 L117.833968,14.2328728 L119.166576,14.2328728 L119.166576,4.74592522 L117.611867,4.74592522 L117.611867,3.12799616 L119.166576,3.12799616 L119.166576,0.774644818 L120.943386,0.774644818 L120.943386,3.12799616 L122.275993,3.12799616 L122.275993,4.74592522 L120.943386,4.74592522 L120.943386,15.8508019 L117.833968,15.8508019 Z M137.00871,15.0418374 L140.932499,12.7620282 L142.561241,13.5709928 L138.637452,15.8508019 L137.00871,15.0418374 Z M151.371257,15.8508019 L147.373435,13.5709928 L149.002177,12.7620282 L153,15.0418374 L151.371257,15.8508019 Z M138.19325,11.5853526 L137.378879,10.6293036 L150.778987,6.9521921 L152.851932,7.54052994 L138.19325,11.5853526 Z M145.522591,7.31990325 L150.556886,7.31990325 L147.299401,8.79074784 L137.452912,8.79074784 L137.452912,7.31990325 L143.227545,7.31990325 L144.560152,6.29031204 L146.633097,6.4373965 L145.522591,7.31990325 Z M149.816549,10.6293036 L148.928144,9.59971237 L150.853021,9.15845899 L152.777899,12.1001482 L145.966794,12.1001482 L145.966794,15.8508019 L143.005444,15.8508019 L143.005444,14.3799573 L144.11595,14.3799573 L144.11595,12.1001482 L137.378879,12.1001482 L137.378879,10.6293036 L149.816549,10.6293036 Z M139.229722,6.58448096 L137.304845,6.58448096 L137.304845,4.15758738 L144.11595,4.15758738 L144.11595,2.98091171 L137.304845,2.98091171 L137.304845,1.36298265 L144.11595,1.36298265 L144.11595,0 L145.966794,0.627560359 L145.966794,1.36298265 L152.703865,1.36298265 L152.703865,2.98091171 L145.966794,2.98091171 L145.966794,4.15758738 L152.703865,4.15758738 L152.703865,6.58448096 L150.778987,6.58448096 L150.778987,5.77551643 L139.229722,5.77551643 L139.229722,6.58448096 Z" id="达观智能搜索" stroke="#FFFFFF" stroke-width="0.2" fill="#FFFFFF" fill-rule="nonzero"></path>
                    <g id="编组-2" transform="translate(0.000000, 0.000000)">
                        <mask id="mask-2" fill="white">
                            <use xlink:href="#path-1"></use>
                        </mask>
                        <g id="蒙版"></g>
                        <g mask="url(#mask-2)">
                            <g transform="translate(0.790210, -0.357143)">
                                <path d="M7.08920183,1.83620789 C8.51393183,1.06481137 10.4112012,1.26964618 12.5291404,2.3992543 L12.623562,2.45082835 L12.5688409,2.42387061 C11.0022836,1.6705511 9.62084313,1.49744075 8.62148657,1.95169467 L8.46689736,2.02863941 C7.12549935,2.75692591 6.5315329,4.7305502 6.83734312,7.44349247 C6.84921549,7.54898078 6.86274363,7.65530651 6.87713828,7.762093 C8.26541372,7.34333695 9.80008435,7.04198009 11.4265597,6.86633755 C12.4032831,5.62868038 13.4494485,4.52888001 14.5300014,3.60723741 L14.5300014,3.60723741 L14.491562,3.57982835 L14.69775,3.43438613 L14.69775,3.43438613 L14.9641141,3.25396593 C17.5250178,1.56442293 19.9129606,1.19836237 21.6880286,2.22319835 C23.4630966,3.24803433 24.3400502,5.49908373 24.1573736,8.56169676 C24.1446885,8.77434299 24.1263951,8.98966365 24.1038086,9.20680219 C24.3150697,9.29730237 24.522444,9.39040589 24.7246396,9.48672569 C27.6363635,10.8741008 29.2691568,12.7156967 29.3226601,14.6726643 C29.3539981,15.8182836 28.841121,16.8956301 27.8407466,17.8397477 C27.7251232,17.4387802 27.570701,17.054722 27.3825975,16.69095 C28.0309617,15.9946951 28.3673745,15.2450564 28.3475539,14.4893556 C28.3075169,12.9635482 26.8143032,11.3881293 24.2516647,10.1679357 C24.1520109,10.1204773 24.0508807,10.0739052 23.9488966,10.0278675 C23.7488937,11.1110982 23.4457276,12.2299704 23.0474885,13.3609468 C22.6064109,13.2648524 22.1482633,13.2142857 21.6783217,13.2142857 C21.3661866,13.2142857 21.0592545,13.2365938 20.7590286,13.2797047 C20.4547251,12.6665135 20.1213673,12.0529734 19.7617625,11.4441984 C19.1929898,10.4813233 18.5808737,9.56801947 17.9380188,8.71838321 C16.8808135,8.58648932 15.7837536,8.51299991 14.6655217,8.50188247 C13.5473185,8.49078163 12.4515807,8.54244406 11.3968097,8.65331437 C10.7709284,9.49032558 10.1770216,10.3916936 9.62753358,11.3434347 C9.0780456,12.2951758 8.59442389,13.260142 8.18246281,14.2206601 C8.61383179,15.1895537 9.11695973,16.1643218 9.68570368,17.1271803 C10.2544476,18.0900389 10.8665925,19.0033593 11.5094474,19.8529955 C12.5666814,19.984906 13.6637125,20.0583789 14.7819445,20.0694963 C14.9463355,20.0711331 15.1102401,20.0714121 15.2735998,20.0703452 C15.2921388,20.3682427 15.3322717,20.6627042 15.3915687,20.9501492 C14.5965696,20.930957 13.8093976,20.8841859 13.0348652,20.8124058 C13.8443305,21.7220252 14.6814555,22.5449699 15.5301014,23.262006 C15.7135607,23.1093595 15.8961797,22.951318 16.0777854,22.7880931 C16.204582,23.0133248 16.3451223,23.2315951 16.4979351,23.44029 L16.3920714,23.5385562 L16.3920714,23.5385562 L15.9885323,23.8924404 C16.0794117,23.957713 16.1702928,24.0220383 16.2612203,24.0846121 C17.2745272,24.7820852 18.2450886,25.2721832 19.1288251,25.5443942 C19.909399,25.8833171 20.7719232,26.0714286 21.6783217,26.0714286 C22.2923982,26.0714286 22.8863366,25.9850866 23.4486913,25.8238644 C23.1451767,26.2008391 22.7808893,26.506441 22.3583878,26.7352054 C20.8507444,27.5515217 18.8136677,27.2744641 16.5462889,25.9653923 C16.2245005,25.7796077 15.8984283,25.5733556 15.568223,25.3461722 C15.3837098,25.2192255 15.1993926,25.0861859 15.0153866,24.9484785 C14.8386164,25.0766358 14.6613352,25.2001281 14.4834755,25.3174474 C11.9224973,27.0069841 9.53455445,27.3730446 7.75948648,26.3482087 C5.9844185,25.3233727 5.10746484,23.0723233 5.29021603,20.0097166 C5.30288769,19.7970259 5.32118108,19.5817052 5.34376763,19.3645667 C5.13247716,19.2740496 4.92507358,19.1809291 4.72287796,19.0846093 C4.36131084,18.9122876 4.01925582,18.7329064 3.69764326,18.5472233 C1.43000074,17.2379993 0.17178466,15.6125922 0.12491612,13.8987046 C0.0713968847,11.9417645 1.60588708,10.1839871 4.44570665,8.94922249 C4.64293671,8.86346785 4.84551545,8.78124192 5.05215325,8.70180018 C5.01763294,8.48312574 4.98753989,8.26652997 4.96320396,8.05289086 C4.61260241,4.97613568 5.36763718,2.76833956 7.08920183,1.83620789 Z M6.88052708,20.0663057 C6.86989702,20.170204 6.86012939,20.2737018 6.851888,20.3764011 C6.63980165,23.017302 7.2633499,24.962179 8.56260398,25.7123036 C9.86185807,26.4624283 11.8579154,26.0299814 14.0389595,24.5258588 C14.123779,24.4673718 14.208527,24.407164 14.293237,24.3459967 C13.2367957,23.4145469 12.2079169,22.310032 11.2411754,21.0728818 C9.68643076,20.8542513 8.21543648,20.5155029 6.88052708,20.0663057 Z M7.78522754,15.5762153 C7.41265021,16.6770341 7.13217547,17.7614088 6.95227694,18.8068485 C7.99755634,19.1832681 9.12882896,19.4967746 10.321335,19.7429889 C9.85617006,19.0859169 9.4074487,18.4037778 8.97913562,17.7000222 C8.55083739,16.9963167 8.15243858,16.2867225 7.78522754,15.5762153 Z M5.27041922,9.83857573 C5.17074153,9.87950365 5.0718961,9.92095163 4.9746038,9.96341482 C2.47225612,11.0550559 1.05997004,12.5562891 1.09996494,14.0821008 C1.13999129,15.6079307 2.63316337,17.1831415 5.19586763,18.4035261 C5.29552168,18.4509846 5.3967008,18.4975452 5.49863666,18.5435943 C5.75650183,17.146955 6.18588223,15.6910342 6.76940325,14.2263409 C6.10826357,12.72997 5.60191563,11.250217 5.27041922,9.83857573 Z M20.196527,8.82778239 C20.6616734,9.48479777 21.1103732,10.1669612 21.5386829,10.8707097 C21.9670107,11.5744271 22.3654213,12.2840643 22.7326296,12.9945644 C23.1052203,11.8937265 23.3856584,10.8093446 23.5655542,9.76391624 C22.5202335,9.3875117 21.3889713,9.0740074 20.196527,8.82778239 Z M9.76740638,8.68491247 C8.73080529,8.88636778 7.74873865,9.14946911 6.84279633,9.47076538 C7.01751677,10.4159826 7.28066946,11.3980116 7.62454923,12.3964499 C7.93300411,11.7624438 8.26869384,11.1298032 8.63060397,10.5029566 C8.99251408,9.8761099 9.37256844,9.26904527 9.76740638,8.68491247 Z M21.9552532,2.85847606 C20.6559591,2.10832827 18.6598826,2.54078416 16.4787986,4.04495772 C16.3940247,4.10343326 16.3093224,4.1636298 16.2246284,4.22476866 C17.2810775,5.15622703 18.3099635,6.26075251 19.2766817,7.49789786 C20.8314402,7.71652778 22.3024303,8.05530638 23.6373214,8.50448894 C23.6479053,8.40060169 23.6576859,8.29714904 23.6659276,8.19444853 C23.8780677,5.5535047 23.2545472,3.60862384 21.9552532,2.85847606 Z M14.9877435,5.30876666 C14.1723127,5.98728156 13.3734697,6.77233472 12.6064016,7.64543567 C13.4053296,7.60819913 14.2190281,7.59840964 15.0426425,7.61749617 C15.8662747,7.63655166 16.6813908,7.68408941 17.4829871,7.75838237 C16.6735302,6.84876282 15.8363806,6.02580022 14.9877435,5.30876666 Z" id="形状结合" fill="url(#linearGradient-3)" fill-rule="nonzero"></path>
                                <g id="编组" stroke-width="1" fill="none" fill-rule="evenodd" transform="translate(14.595986, 14.543789) rotate(-30.000000) translate(-14.595986, -14.543789) translate(9.595986, 9.543789)">
                                    <g id="编组-3" transform="translate(0.926587, 0.535714)">
                                        <g>
                                            <g id="形状" transform="translate(0.713287, 0.714286)" fill="#3674EA" fill-rule="nonzero">
                                                <path d="M6.08647552,6.095 C5.38816783,6.79357143 4.54862937,7.14285714 3.56643357,7.14285714 C2.58423776,7.14285714 1.7446993,6.79357143 1.04639161,6.095 C0.348797203,5.39571429 0,4.555 0,3.57142857 C0,2.58857143 0.348797203,1.74714286 1.04639161,1.04785714 C1.7446993,0.349285714 2.58423776,0 3.56643357,0 C4.54862937,0 5.38816783,0.349285714 6.08647552,1.04785714 C6.78406993,1.74714286 7.13286713,2.58857143 7.13286713,3.57142857 C7.13286713,4.555 6.78406993,5.39571429 6.08647552,6.095 Z M0.154783217,3.41642857 L6.97737063,3.41642857 L6.97737063,3.72714286 L0.154783217,3.72714286 L0.154783217,3.41642857 Z M5.8732028,1.26142857 C5.2398042,0.627857143 4.47088112,0.310714286 3.56643357,0.310714286 C2.66198601,0.310714286 1.89306294,0.627857143 1.25966434,1.26142857 C0.626979021,1.89571429 0.31027972,2.66571429 0.31027972,3.57142857 C0.31027972,4.47714286 0.626979021,5.24785714 1.25966434,5.88142857 C1.89306294,6.515 2.66198601,6.83214286 3.56643357,6.83214286 C4.47088112,6.83214286 5.2398042,6.515 5.8732028,5.88071429 C6.50588811,5.24785714 6.82258741,4.47714286 6.82258741,3.57142857 C6.82258741,2.66571429 6.50588811,1.89571429 5.8732028,1.26142857 Z M0.949384615,1.43642857 L1.10416783,1.165 C1.75111888,1.52714286 2.5713986,1.70785714 3.56643357,1.70785714 C4.56146853,1.70785714 5.38174825,1.52642857 6.02798601,1.16428571 L6.18276923,1.43571429 C5.48517483,1.82428571 4.61282517,2.01857143 3.56643357,2.01857143 C2.52004196,2.01857143 1.64769231,1.82428571 0.949384615,1.43642857 Z M6.02798601,5.97857143 C5.38174825,5.61642857 4.56146853,5.435 3.56643357,5.435 C2.5713986,5.435 1.75111888,5.61642857 1.10488112,5.97857143 L0.950097902,5.70714286 C1.66053147,5.31857143 2.53288112,5.12428571 3.56643357,5.12428571 C4.61282517,5.12428571 5.48517483,5.31857143 6.18348252,5.70642857 L6.02798601,5.97857143 Z M4.88458741,6.11428571 C4.52295105,6.8 4.08356643,7.14285714 3.56643357,7.14285714 C3.0493007,7.14285714 2.60991608,6.79642857 2.24827972,6.10428571 C1.88664336,5.41285714 1.70546853,4.56785714 1.70546853,3.57142857 C1.70546853,2.575 1.88664336,1.73071429 2.24827972,1.03857143 C2.60991608,0.346428571 3.0493007,0 3.56643357,0 C4.08356643,0 4.52295105,0.346428571 4.88458741,1.03857143 C5.24622378,1.73071429 5.4273986,2.575 5.4273986,3.57142857 C5.4273986,4.56785714 5.24622378,5.415 4.88458741,6.11428571 Z M4.65205594,1.28071429 C4.34177622,0.634285714 3.98013986,0.310714286 3.56643357,0.310714286 C3.15272727,0.310714286 2.79109091,0.634285714 2.48081119,1.28071429 C2.17053147,1.92857143 2.01574825,2.69142857 2.01574825,3.57142857 C2.01574825,4.45142857 2.17053147,5.215 2.48081119,5.86142857 C2.79109091,6.50928571 3.15272727,6.83214286 3.56643357,6.83214286 C3.98013986,6.83214286 4.34177622,6.50928571 4.65205594,5.86142857 C4.96233566,5.215 5.11711888,4.45142857 5.11711888,3.57142857 C5.11711888,2.69142857 4.96233566,1.92857143 4.65205594,1.28071429 Z M3.41165035,0.155 L3.72193007,0.155 L3.72193007,6.98714286 L3.41165035,6.98714286 L3.41165035,0.155 Z"></path>
                                            </g>
                                            <ellipse id="椭圆形" stroke="#3674EA" stroke-width="0.6" cx="4.27972028" cy="4.28571429" rx="3.97972028" ry="3.98571429"></ellipse>
                                        </g>
                                    </g>
                                </g>
                                <ellipse id="椭圆形" fill="#4C89EE" fill-rule="evenodd" cx="23.8181818" cy="6.78571429" rx="1.06993007" ry="1.07142857"></ellipse>
                                <ellipse id="椭圆形备份" fill="#4683EC" fill-rule="evenodd" cx="3.48951049" cy="17.5" rx="1.06993007" ry="1.07142857"></ellipse>
                                <ellipse id="椭圆形备份-2" fill="#6DAAF4" fill-rule="evenodd" cx="7.76923077" cy="1.96428571" rx="1.06993007" ry="1.07142857"></ellipse>
                                <g id="编组备份-3" stroke-width="1" fill="none" fill-rule="evenodd" transform="translate(14.188811, 12.142857)">
                                    <path d="M7.48951049,0 C11.6258529,0 14.979021,3.35786438 14.979021,7.5 C14.979021,9.09396432 14.48247,10.5717905 13.6358198,11.7868216 L13.6242218,11.7857143 C13.8360988,11.7857143 14.039159,11.8711523 14.1880889,12.0229626 L18.9474194,16.3460533 C19.2482569,16.6548317 19.3401343,17.1134947 19.183211,17.5172819 C19.0283258,17.9199055 18.6527266,18.1930018 18.2245963,18.2142857 L18.1815033,18.1774289 C17.9093302,18.1685265 17.6506746,18.0558151 17.4578671,17.8620981 L13.1254006,13.2687239 C12.9686278,13.12368 12.8754955,12.9345794 12.8478763,12.7372853 C11.4896687,14.1335731 9.59063051,15 7.48951049,15 C3.35316806,15 0,11.6421356 0,7.5 C0,3.35786438 3.35316806,0 7.48951049,0 Z M7.48951049,1.60714286 C4.23952715,1.60714286 1.6048951,4.24546487 1.6048951,7.5 C1.6048951,10.7545351 4.23952715,13.3928571 7.48951049,13.3928571 C10.7394938,13.3928571 13.3741259,10.7545351 13.3741259,7.5 C13.3741259,4.24546487 10.7394938,1.60714286 7.48951049,1.60714286 Z" id="形状结合" fill="url(#linearGradient-4)" fill-rule="nonzero"></path>
                                </g>
                            </g>
                        </g>
                    </g>
                    <path d="M43.971713,29.1177283 C44.2440129,29.1177283 44.4677807,29.0887337 44.6430231,29.0307437 C44.9557635,28.9230481 45.2118833,28.7159441 45.4113901,28.4094256 C45.5704563,28.1636586 45.6850362,27.8488605 45.7551332,27.4650221 C45.7955738,27.2358236 45.8157937,27.0231969 45.8157937,26.8271355 C45.8157937,26.0732657 45.6695359,25.4878519 45.3770158,25.0708763 C45.0844957,24.6539007 44.6133701,24.4454161 43.963625,24.4454161 L42.53608,24.4454161 L42.53608,29.1177283 L43.971713,29.1177283 Z M41.7272727,23.7371134 L44.1334745,23.7371134 C44.950374,23.7371134 45.5839334,24.0339624 46.0341717,24.6276694 C46.4358814,25.1633863 46.6367332,25.8495908 46.6367332,26.6863034 C46.6367332,27.3324775 46.5181093,27.9165106 46.2808579,28.4384205 C45.8629721,29.3607373 45.1444888,29.8218888 44.1253864,29.8218888 L41.7272727,29.8218888 L41.7272727,23.7371134 Z M52.3139384,27.3283321 L51.4121182,24.6400957 L50.4536816,27.3283321 L52.3139384,27.3283321 Z M50.9915384,23.7371134 L51.9014467,23.7371134 L54.0569182,29.8218888 L53.1753182,29.8218888 L52.5727567,27.9993557 L50.2231715,27.9993557 L49.5801697,29.8218888 L48.7551862,29.8218888 L50.9915384,23.7371134 Z M60.0940427,23.7371134 L60.0940427,24.4619845 L58.0922445,24.4619845 L58.0922445,29.8218888 L57.2753492,29.8218888 L57.2753492,24.4619845 L55.273551,24.4619845 L55.273551,23.7371134 L60.0940427,23.7371134 Z M64.8613397,27.3283321 L63.9595195,24.6400957 L63.0010828,27.3283321 L64.8613397,27.3283321 Z M63.5389397,23.7371134 L64.4488479,23.7371134 L66.6043194,29.8218888 L65.7227195,29.8218888 L65.120158,27.9993557 L62.7705727,27.9993557 L62.1275709,29.8218888 L61.3025875,29.8218888 L63.5389397,23.7371134 Z M71.4969816,23.5797128 C72.0550614,23.5797128 72.537645,23.6901683 72.9447467,23.9110825 C73.535179,24.2286467 73.8964426,24.785066 74.0285485,25.5803571 L73.2318733,25.5803571 C73.1348159,25.1357673 72.9339641,24.8119948 72.6293118,24.6090298 C72.3246595,24.4060649 71.9404799,24.3045839 71.4767614,24.3045839 C70.9267697,24.3045839 70.4637321,24.51583 70.0876348,24.9383284 C69.7115375,25.3608269 69.5234917,25.9904229 69.5234917,26.8271355 C69.5234917,27.5506295 69.6785116,28.1394952 69.9885559,28.59375 C70.2986003,29.0480048 70.8040998,29.2751289 71.5050696,29.2751289 C72.0415812,29.2751289 72.4857468,29.1156588 72.8375797,28.7967139 C73.1894127,28.477769 73.3693705,27.9620801 73.3774586,27.2496318 L71.5172018,27.2496318 L71.5172018,26.5661819 L74.1256054,26.5661819 L74.1256054,29.8218888 L73.6079687,29.8218888 L73.4138549,29.039028 C73.1415551,29.3455465 72.9002633,29.5581732 72.6899724,29.6769146 C72.3367914,29.8812602 71.8879078,29.9834315 71.3433082,29.9834315 C70.6396423,29.9834315 70.0343909,29.7500944 69.5275357,29.2834131 C68.974848,28.6979904 68.6985082,27.8944271 68.6985082,26.8726988 C68.6985082,25.853732 68.968108,25.0432652 69.5073156,24.4412739 C70.0195628,23.866897 70.6827781,23.5797128 71.4969816,23.5797128 Z M79.7259739,26.5247607 C80.1034192,26.5247607 80.4020009,26.4474419 80.621728,26.2928019 C80.8414551,26.138162 80.951317,25.859262 80.951317,25.4560935 C80.951317,25.0225494 80.7976451,24.7270811 80.4902968,24.5696797 C80.3258385,24.4868368 80.1061147,24.4454161 79.8311189,24.4454161 L77.8657171,24.4454161 L77.8657171,26.5247607 L79.7259739,26.5247607 Z M77.0609538,23.7371134 L79.8108987,23.7371134 C80.263833,23.7371134 80.6372287,23.8047674 80.9310968,23.9400773 C81.4891767,24.1996515 81.7682124,24.678752 81.7682124,25.3773932 C81.7682124,25.7419017 81.6947465,26.0401314 81.5478124,26.2720913 C81.4008783,26.5040512 81.1953085,26.6904448 80.9310968,26.8312776 C81.1629561,26.9279276 81.3375219,27.0549513 81.4547996,27.2123527 C81.5720772,27.3697541 81.6374551,27.6251823 81.6509353,27.9786451 L81.6792436,28.7946429 L81.6909263,29.0068119 C81.7011113,29.1350641 81.7160892,29.2369289 81.7358601,29.312408 C81.7843888,29.5057079 81.8706607,29.6299703 81.9946784,29.6851988 L81.9946784,29.8218888 L81.0079335,29.8218888 C80.9809731,29.7694217 80.9594052,29.7017677 80.9432289,29.6189249 C80.9293636,29.5479167 80.9174792,29.4201039 80.9075754,29.2354832 L80.8542601,28.1236193 C80.8353879,27.7259737 80.691152,27.4594999 80.4215482,27.32419 C80.267874,27.2496314 80.0265823,27.2123527 79.6976657,27.2123527 L77.8657171,27.2123527 L77.8657171,29.8218888 L77.0609538,29.8218888 L77.0609538,23.7371134 Z M87.5869589,27.3283321 L86.6851387,24.6400957 L85.7267021,27.3283321 L87.5869589,27.3283321 Z M86.2645589,23.7371134 L87.1744672,23.7371134 L89.3299387,29.8218888 L88.4483387,29.8218888 L87.8457772,27.9993557 L85.496192,27.9993557 L84.8531902,29.8218888 L84.0282067,29.8218888 L86.2645589,23.7371134 Z M91.6546376,23.7371134 L92.6049862,23.7371134 L95.6056613,28.6662371 L95.6056613,23.7371134 L96.3699843,23.7371134 L96.3699843,29.8218888 L95.4681641,29.8218888 L92.4230045,24.8969072 L92.4230045,29.8218888 L91.6546376,29.8218888 L91.6546376,23.7371134 Z M101.509333,29.1177283 C101.781632,29.1177283 102.0054,29.0887337 102.180643,29.0307437 C102.493383,28.9230481 102.749503,28.7159441 102.94901,28.4094256 C103.108076,28.1636586 103.222656,27.8488605 103.292753,27.4650221 C103.333193,27.2358236 103.353413,27.0231969 103.353413,26.8271355 C103.353413,26.0732657 103.207155,25.4878519 102.914635,25.0708763 C102.622115,24.6539007 102.15099,24.4454161 101.501245,24.4454161 L100.0737,24.4454161 L100.0737,29.1177283 L101.509333,29.1177283 Z M99.2648923,23.7371134 L101.671094,23.7371134 C102.487994,23.7371134 103.121553,24.0339624 103.571791,24.6276694 C103.973501,25.1633863 104.174353,25.8495908 104.174353,26.6863034 C104.174353,27.3324775 104.055729,27.9165106 103.818478,28.4384205 C103.400592,29.3607373 102.682108,29.8218888 101.663006,29.8218888 L99.2648923,29.8218888 L99.2648923,23.7371134 Z M111.221864,27.8585236 C111.240736,28.203702 111.320268,28.4839827 111.460462,28.6993741 C111.72737,29.1025425 112.197822,29.3041237 112.871831,29.3041237 C113.173787,29.3041237 113.448779,29.2599415 113.696815,29.1715758 C114.176709,29.0003673 114.416653,28.6938535 114.416653,28.252025 C114.416653,27.9206537 114.315553,27.6845552 114.11335,27.5437224 C113.908452,27.405651 113.587628,27.2855307 113.15087,27.1833579 L112.346106,26.9969624 C111.820379,26.8754596 111.448331,26.7415324 111.229952,26.5951767 C110.852507,26.3411254 110.663787,25.9614348 110.663787,25.4560935 C110.663787,24.9093308 110.848463,24.4606056 111.21782,24.1099043 C111.587177,23.759203 112.110201,23.5838549 112.786906,23.5838549 C113.409691,23.5838549 113.938781,23.7378022 114.374191,24.0457014 C114.809601,24.3536006 115.027303,24.8458177 115.027303,25.5223675 L114.271068,25.5223675 C114.230627,25.196519 114.144355,24.9466135 114.012249,24.7726436 C113.76691,24.4550794 113.350378,24.2962997 112.762642,24.2962997 C112.28814,24.2962997 111.947096,24.398471 111.739501,24.6028166 C111.531906,24.8071623 111.42811,25.0446415 111.42811,25.3152614 C111.42811,25.6134956 111.54943,25.8316451 111.792073,25.9697165 C111.95114,26.0580822 112.311055,26.1685376 112.871831,26.3010862 L113.704903,26.4957658 C114.106612,26.5896544 114.416652,26.7180588 114.635031,26.8809831 C115.012476,27.1654101 115.201196,27.5782374 115.201196,28.1194772 C115.201196,28.7932655 114.961926,29.2751274 114.48338,29.5650773 C114.004833,29.8550272 113.448784,30 112.815215,30 C112.0765,30 111.498209,29.806703 111.080323,29.4201031 C110.662437,29.0362646 110.457541,28.5157433 110.465629,27.8585236 L111.221864,27.8585236 Z M117.889858,23.7371134 L122.221022,23.7371134 L122.221022,24.4826951 L118.674402,24.4826951 L118.674402,26.330081 L121.954115,26.330081 L121.954115,27.0342415 L118.674402,27.0342415 L118.674402,29.0970177 L122.281682,29.0970177 L122.281682,29.8218888 L117.889858,29.8218888 L117.889858,23.7371134 Z M127.979108,27.3283321 L127.077287,24.6400957 L126.118851,27.3283321 L127.979108,27.3283321 Z M126.656708,23.7371134 L127.566616,23.7371134 L129.722087,29.8218888 L128.840487,29.8218888 L128.237926,27.9993557 L125.888341,27.9993557 L125.245339,29.8218888 L124.420355,29.8218888 L126.656708,23.7371134 Z M134.808863,26.5247607 C135.186309,26.5247607 135.48489,26.4474419 135.704617,26.2928019 C135.924344,26.138162 136.034206,25.859262 136.034206,25.4560935 C136.034206,25.0225494 135.880535,24.7270811 135.573186,24.5696797 C135.408728,24.4868368 135.189004,24.4454161 134.914008,24.4454161 L132.948606,24.4454161 L132.948606,26.5247607 L134.808863,26.5247607 Z M132.143843,23.7371134 L134.893788,23.7371134 C135.346722,23.7371134 135.720118,23.8047674 136.013986,23.9400773 C136.572066,24.1996515 136.851102,24.678752 136.851102,25.3773932 C136.851102,25.7419017 136.777636,26.0401314 136.630702,26.2720913 C136.483768,26.5040512 136.278198,26.6904448 136.013986,26.8312776 C136.245845,26.9279276 136.420411,27.0549513 136.537689,27.2123527 C136.654967,27.3697541 136.720344,27.6251823 136.733825,27.9786451 L136.762133,28.7946429 L136.773816,29.0068119 C136.784001,29.1350641 136.798979,29.2369289 136.818749,29.312408 C136.867278,29.5057079 136.95355,29.6299703 137.077568,29.6851988 L137.077568,29.8218888 L136.090823,29.8218888 C136.063862,29.7694217 136.042295,29.7017677 136.026118,29.6189249 C136.012253,29.5479167 136.000369,29.4201039 135.990465,29.2354832 L135.937149,28.1236193 C135.918277,27.7259737 135.774041,27.4594999 135.504438,27.32419 C135.350763,27.2496314 135.109472,27.2123527 134.780555,27.2123527 L132.948606,27.2123527 L132.948606,29.8218888 L132.143843,29.8218888 L132.143843,23.7371134 Z M142.123903,23.5714286 C142.876098,23.5714286 143.459781,23.7743905 143.874971,24.1803203 C144.290161,24.5862502 144.520669,25.0474017 144.566501,25.5637887 L143.781958,25.5637887 C143.692989,25.1716659 143.515727,24.86101 143.250168,24.6318115 C142.984608,24.402613 142.611886,24.2880155 142.131991,24.2880155 C141.546951,24.2880155 141.074478,24.4985712 140.714557,24.9196889 C140.354636,25.3408066 140.174678,25.9862806 140.174678,26.8561303 C140.174678,27.5685787 140.337112,28.1463987 140.661984,28.5896079 C140.986857,29.032817 141.471462,29.2544183 142.115815,29.2544183 C142.708944,29.2544183 143.160523,29.0210811 143.470568,28.5543999 C143.635026,28.3086328 143.757694,27.9855506 143.838575,27.5851436 L144.623118,27.5851436 C144.553021,28.2257948 144.321165,28.7628844 143.927544,29.1964286 C143.455737,29.7183384 142.819482,29.9792894 142.018758,29.9792894 C141.328573,29.9792894 140.748933,29.765282 140.279823,29.3372607 C139.66243,28.771168 139.353738,27.8971893 139.353738,26.7152982 C139.353738,25.8178342 139.585594,25.0819248 140.049313,24.5075479 C140.550776,23.8834652 141.242299,23.5714286 142.123903,23.5714286 Z M147.214723,23.7371134 L148.027575,23.7371134 L148.027575,26.2513807 L151.117219,26.2513807 L151.117219,23.7371134 L151.93007,23.7371134 L151.93007,29.8218888 L151.117219,29.8218888 L151.117219,26.9762518 L148.027575,26.9762518 L148.027575,29.8218888 L147.214723,29.8218888 L147.214723,23.7371134 Z" id="DATAGRANDSEARCH" stroke="#FFFFFF" stroke-width="0.2" fill="#FFFFFF" fill-rule="nonzero"></path>
                </g>
            </g>
        </g>
    </g>
</svg>