<?xml version="1.0" encoding="UTF-8"?>
<svg width="146px" height="30px" viewBox="0 0 146 30" version="1.1" xmlns="http://www.w3.org/2000/svg" xmlns:xlink="http://www.w3.org/1999/xlink">
    <defs>
        <linearGradient x1="-41.4632842%" y1="19.765589%" x2="79.5179027%" y2="83.5836349%" id="linearGradient-1">
            <stop stop-color="#A5E2FF" offset="0%"></stop>
            <stop stop-color="#003EDF" offset="100%"></stop>
        </linearGradient>
        <linearGradient x1="-34.2832225%" y1="-38.5669017%" x2="94.7426185%" y2="91.4411894%" id="linearGradient-2">
            <stop stop-color="#A5E2FF" offset="0%"></stop>
            <stop stop-color="#003EDF" offset="100%"></stop>
        </linearGradient>
    </defs>
    <g id="页面-1" stroke="none" stroke-width="1" fill="none" fill-rule="evenodd">
        <g id="文本列表页" transform="translate(-347.000000, -15.000000)">
            <g id="达观智能搜索logo备份-2" transform="translate(347.000000, 15.000000)">
                <g id="编组-4">
                    <g id="编组-17" transform="translate(39.757801, 0.937500)" fill="#346CD5" fill-rule="nonzero" stroke="#346CD5">
                        <path d="M1.81086475,0.585723002 L4.25179485,3.12538133 L3.34516367,4.49816962 L0.904233566,1.95851129 L1.81086475,0.585723002 Z M2.64775507,13.1467358 L1.60164217,15 L0.485788405,13.83313 L1.53190131,11.7739475 L1.53190131,6.62599146 L0.764751846,6.62599146 L0.764751846,5.18456376 L3.27542281,5.18456376 L3.27542281,11.4993899 L5.2281669,13.2840146 L15.9682594,13.2840146 L15.9682594,14.7940818 L4.53075829,14.7940818 L2.64775507,13.1467358 Z M10.667954,7.17510677 L6.20453894,11.9112264 L5.2281669,10.7443563 L9.83106367,5.80231849 L9.83106367,4.29225137 L5.50713034,4.29225137 L5.50713034,2.78218426 L9.83106367,2.78218426 L9.83106367,0 L11.5745852,0.585723002 L11.5745852,2.78218426 L16.0380002,2.78218426 L16.0380002,4.29225137 L11.5745852,4.29225137 L11.5745852,5.80231849 L16.2472228,10.7443563 L15.2011099,11.9112264 L10.667954,7.17510677 Z M30.1953948,14.7940818 L30.1953948,10.8129957 L31.8691755,10.8129957 L31.8691755,13.2153752 L33.8219196,13.2153752 L33.8219196,14.7940818 L30.1953948,14.7940818 Z M30.4743583,9.98932276 L26.7083518,14.7940818 L25.0345712,14.5881635 L28.8005776,9.57748627 L28.8005776,4.08633313 L30.4743583,4.08633313 L30.4743583,9.98932276 Z M25.6622389,0.791641245 L33.612697,0.791641245 L33.612697,10.0579622 L31.9389163,10.0579622 L31.9389163,2.30170836 L27.3360196,2.30170836 L27.3360196,9.92068334 L25.6622389,9.92068334 L25.6622389,0.791641245 Z M20.152711,3.60585723 L24.2674217,13.83313 L23.0120862,14.7940818 L18.8973755,4.63544844 L20.152711,3.60585723 Z M18.618412,13.9017694 L22.5936411,3.74313606 L22.5936411,2.5076266 L18.7578938,2.5076266 L18.7578938,0.997559487 L24.4069034,0.997559487 L24.4069034,3.4685784 L19.8040067,14.7940818 L18.618412,13.9017694 Z M37.9040846,3.39993899 L36.7882308,2.30170836 L37.4856394,0.585723002 L39.2438356,0.585723002 L37.9040846,3.39993899 Z M49.7925765,5.73367907 L49.7925765,2.5076266 L47.2121647,2.5076266 L47.2121647,5.73367907 L49.7925765,5.73367907 Z M49.4438722,13.2840146 L49.4438722,12.2544234 L38.9827432,12.2544234 L38.9827432,13.2840146 L49.4438722,13.2840146 Z M38.9827432,9.64612569 L38.9827432,10.7443563 L49.4438722,10.7443563 L49.4438722,9.64612569 L38.9827432,9.64612569 Z M38.076112,2.37034777 L38.076112,0.997559487 L44.2830486,0.997559487 L44.2830486,2.37034777 L41.6328959,2.37034777 L41.6328959,3.53721782 L44.562012,3.53721782 L44.562012,4.84136669 L41.6328959,4.84136669 L41.6328959,5.32184259 L44.7014937,6.69463087 L43.5158991,7.58694326 L40.7960056,6.3514338 L37.7274077,7.65558267 L36.7510357,6.69463087 L39.8893744,5.32184259 L39.8893744,4.84136669 L36.8905174,4.84136669 L36.8905174,3.53721782 L39.8893744,3.53721782 L39.8893744,2.37034777 L38.076112,2.37034777 Z M45.4686432,7.24374619 L45.4686432,0.997559487 L51.536098,0.997559487 L51.536098,7.24374619 L45.4686432,7.24374619 Z M37.2392217,14.7940818 L37.2392217,8.20469799 L51.1873937,8.20469799 L51.1873937,14.7940818 L37.2392217,14.7940818 Z M69.3897582,13.3526541 L69.3897582,14.7940818 L63.4617851,14.7940818 L63.4617851,8.13605857 L65.1355658,8.72178157 L65.1355658,10.4697987 L68.4831271,8.79042099 L69.5989808,9.8200122 L65.1355658,12.2544234 L65.1355658,13.3526541 L69.3897582,13.3526541 Z M56.3482174,7.86150092 L60.044483,7.86150092 L60.044483,6.62599146 L56.3482174,6.62599146 L56.3482174,7.86150092 Z M56.3482174,10.6070775 L60.044483,10.6070775 L60.044483,9.30292862 L56.3482174,9.30292862 L56.3482174,10.6070775 Z M61.2998185,1.13483832 L62.3459314,3.88041489 L54.2559916,3.88041489 L55.9995131,0.585723002 L57.6732937,0.928920073 L56.9061443,2.43898719 L59.9747421,2.43898719 L59.6957787,1.5466748 L61.2998185,1.13483832 Z M69.3897582,5.8709579 L69.3897582,7.3123856 L63.4617851,7.3123856 L63.4617851,0.654362416 L65.1355658,1.24008542 L65.1355658,2.9881025 L68.4133862,1.30872483 L69.5989808,2.33831605 L65.1355658,4.77272727 L65.1355658,5.8709579 L69.3897582,5.8709579 Z M60.044483,12.1171446 L56.3482174,12.1171446 L56.3482174,14.7940818 L54.6744367,14.7940818 L54.6744367,5.18456376 L61.7880045,5.18456376 L61.7880045,14.7940818 L59.2773335,14.7940818 L59.2773335,13.2840146 L60.044483,13.2840146 L60.044483,12.1171446 Z M78.0376249,11.0875534 L79.9206281,10.4697987 L87.7316045,14.176327 L85.9183421,14.7940818 L78.0376249,11.0875534 Z M81.5944088,6.00823673 L81.5944088,0.137278829 L83.1984486,0.72300183 L83.1984486,6.00823673 L85.7091195,6.00823673 L85.7091195,4.9100061 L84.453784,4.9100061 L84.453784,3.4685784 L85.7091195,3.4685784 L85.7091195,2.37034777 L84.453784,2.37034777 L84.453784,0.997559487 L87.3829002,0.997559487 L87.3829002,7.44966443 L83.1984486,7.44966443 L83.1984486,8.47925564 L86.8947141,8.47925564 L86.8947141,10.8816351 L78.7350335,14.7940818 L77.1309937,14.1076876 L85.2906744,10.1266016 L85.2906744,9.92068334 L77.8981432,9.92068334 L77.8981432,8.47925564 L81.5944088,8.47925564 L81.5944088,7.44966443 L77.5494389,7.44966443 L77.5494389,1.20347773 L79.502183,0.654362416 L80.8272593,1.47803539 L79.1534787,1.95851129 L79.1534787,3.4685784 L80.4088141,3.4685784 L80.4088141,4.9100061 L79.1534787,4.9100061 L79.1534787,6.00823673 L81.5944088,6.00823673 Z M71.9004292,9.02837096 L76.2941034,7.58694326 L76.6428077,9.09701037 L72.1793926,10.5384381 L71.9004292,9.02837096 Z M72.1793926,14.7940818 L72.1793926,13.2840146 L73.4347281,13.2840146 L73.4347281,4.4295302 L71.9701701,4.4295302 L71.9701701,2.91946309 L73.4347281,2.91946309 L73.4347281,0.72300183 L75.1085088,0.72300183 L75.1085088,2.91946309 L76.3638443,2.91946309 L76.3638443,4.4295302 L75.1085088,4.4295302 L75.1085088,14.7940818 L72.1793926,14.7940818 Z M90.2422754,14.0390482 L93.938541,11.9112264 L95.4728399,12.6662599 L91.7765744,14.7940818 L90.2422754,14.0390482 Z M103.772002,14.7940818 L100.005996,12.6662599 L101.540295,11.9112264 L105.306301,14.0390482 L103.772002,14.7940818 Z M91.3581292,10.8129957 L90.5909797,9.92068334 L103.214075,6.48871263 L105.16682,7.03782794 L91.3581292,10.8129957 Z M98.2624743,6.8319097 L103.004853,6.8319097 L99.936255,8.20469799 L90.6607206,8.20469799 L90.6607206,6.8319097 L96.1005077,6.8319097 L97.3558432,5.8709579 L99.3085873,6.00823673 L98.2624743,6.8319097 Z M102.307444,9.92068334 L101.470554,8.95973154 L103.283816,8.54789506 L105.097079,11.2934716 L98.6809195,11.2934716 L98.6809195,14.7940818 L95.8912851,14.7940818 L95.8912851,13.4212935 L96.937398,13.4212935 L96.937398,11.2934716 L90.5909797,11.2934716 L90.5909797,9.92068334 L102.307444,9.92068334 Z M92.3345012,6.14551556 L90.5212389,6.14551556 L90.5212389,3.88041489 L96.937398,3.88041489 L96.937398,2.78218426 L90.5212389,2.78218426 L90.5212389,1.27211714 L96.937398,1.27211714 L96.937398,0 L98.6809195,0.585723002 L98.6809195,1.27211714 L105.027338,1.27211714 L105.027338,2.78218426 L98.6809195,2.78218426 L98.6809195,3.88041489 L105.027338,3.88041489 L105.027338,6.14551556 L103.214075,6.14551556 L103.214075,5.390482 L92.3345012,5.390482 L92.3345012,6.14551556 Z" id="达观智能搜索" stroke-width="0.2"></path>
                        <path d="M2.60154975,27.3530122 C2.858238,27.3530122 3.06917666,27.327642 3.23437207,27.2769008 C3.52918233,27.1826671 3.77061815,27.0014511 3.95868676,26.7332474 C4.10863336,26.5182012 4.21664412,26.242753 4.28272229,25.9068943 C4.3208443,25.7063456 4.33990503,25.5202972 4.33990503,25.3487436 C4.33990503,24.6891075 4.20203247,24.1768704 3.92628321,23.8120168 C3.65053396,23.4471631 3.20641913,23.264739 2.59392539,23.264739 L1.24822493,23.264739 L1.24822493,27.3530122 L2.60154975,27.3530122 Z M0.485788405,22.6449742 L2.75403706,22.6449742 C3.5241018,22.6449742 4.12133777,22.9047171 4.54576289,23.4242107 C4.92444159,23.892963 5.1137781,24.493392 5.1137781,25.2255155 C5.1137781,25.7909178 5.00195519,26.3019468 4.77830603,26.7586179 C4.38437852,27.5656451 3.70708752,27.9691527 2.74641269,27.9691527 L0.485788405,27.9691527 L0.485788405,22.6449742 Z M10.465496,25.7872906 L9.61537927,23.4350838 L8.71189199,25.7872906 L10.465496,25.7872906 Z M9.21891228,22.6449742 L10.0766534,22.6449742 L12.1085467,27.9691527 L11.2774909,27.9691527 L10.7094757,26.3744362 L8.49459758,26.3744362 L7.88846055,27.9691527 L7.1107753,27.9691527 L9.21891228,22.6449742 Z M17.7995489,22.6449742 L17.7995489,23.2792365 L15.9125185,23.2792365 L15.9125185,27.9691527 L15.1424576,27.9691527 L15.1424576,23.2792365 L13.2554272,23.2792365 L13.2554272,22.6449742 L17.7995489,22.6449742 Z M22.2935257,25.7872906 L21.4434089,23.4350838 L20.5399217,25.7872906 L22.2935257,25.7872906 Z M21.0469419,22.6449742 L21.904683,22.6449742 L23.9365764,27.9691527 L23.1055206,27.9691527 L22.5375053,26.3744362 L20.3226272,26.3744362 L19.7164902,27.9691527 L18.938805,27.9691527 L21.0469419,22.6449742 Z M28.5487308,22.5072487 C29.0748147,22.5072487 29.5297306,22.6038972 29.9134922,22.7971972 C30.4700737,23.0750658 30.8106252,23.5619327 30.9351572,24.2578125 L30.1841572,24.2578125 C30.0926643,23.8687964 29.9033278,23.5854954 29.616142,23.4079011 C29.3289561,23.2303068 28.9668024,23.141511 28.5296699,23.141511 C28.0112105,23.141511 27.57472,23.3263512 27.2201852,23.6960374 C26.8656504,24.0657235 26.6883857,24.6166201 26.6883857,25.3487436 C26.6883857,25.9818008 26.8345179,26.4970583 27.1267867,26.8945312 C27.4190555,27.2920042 27.8955736,27.4907378 28.5563552,27.4907378 C29.0621073,27.4907378 29.4808078,27.3512015 29.8124694,27.0721247 C30.1441309,26.7930479 30.3137713,26.3418201 30.3213958,25.7184278 L28.5677918,25.7184278 L28.5677918,25.1204091 L31.0266495,25.1204091 L31.0266495,27.9691527 L30.5386902,27.9691527 L30.3557054,27.2841495 C30.0990171,27.5523531 29.8715592,27.7384015 29.6733247,27.8423003 C29.3403924,28.0211027 28.9172444,28.1105026 28.4038679,28.1105026 C27.7405448,28.1105026 27.1699938,27.9063326 26.6921979,27.4979865 C26.171197,26.9857416 25.9107005,26.2826237 25.9107005,25.3886115 C25.9107005,24.4970155 26.1648434,23.787857 26.673137,23.2611147 C27.1560159,22.7585349 27.7812076,22.5072487 28.5487308,22.5072487 Z M36.305936,25.0841656 C36.6617415,25.0841656 36.9432048,25.0165116 37.1503344,24.8812017 C37.357464,24.7458917 37.4610273,24.5018542 37.4610273,24.1490818 C37.4610273,23.7697307 37.3161658,23.5111959 37.0264385,23.3734697 C36.8714089,23.3009822 36.6642824,23.264739 36.4050527,23.264739 L34.552332,23.264739 L34.552332,25.0841656 L36.305936,25.0841656 Z M33.7937076,22.6449742 L36.3859918,22.6449742 C36.8129584,22.6449742 37.1649464,22.7041714 37.4419664,22.8225677 C37.9680502,23.0496951 38.2310882,23.468908 38.2310882,24.0802191 C38.2310882,24.399164 38.1618342,24.660115 38.0233242,24.8630799 C37.8848142,25.0660448 37.6910302,25.2291392 37.4419664,25.3523679 C37.6605326,25.4369366 37.8250902,25.5480824 37.935644,25.6858086 C38.0461979,25.8235348 38.1078275,26.0470345 38.1205349,26.3563144 L38.1472202,27.0703125 L38.1582331,27.2559604 C38.1678341,27.3681811 38.1819533,27.4573128 38.2005907,27.523357 C38.2463371,27.6924944 38.3276629,27.801224 38.4445704,27.849549 L38.4445704,27.9691527 L37.5143979,27.9691527 C37.4889832,27.923244 37.4686517,27.8640468 37.4534029,27.7915593 C37.4403325,27.7294272 37.4291295,27.6175909 37.4197935,27.4560478 L37.3695349,26.4831669 C37.3517446,26.135227 37.2157782,25.9020624 36.9616314,25.7836662 C36.8167677,25.7184275 36.5893098,25.6858086 36.2792507,25.6858086 L34.552332,25.6858086 L34.552332,27.9691527 L33.7937076,27.9691527 L33.7937076,22.6449742 Z M43.7162325,25.7872906 L42.8661157,23.4350838 L41.9626285,25.7872906 L43.7162325,25.7872906 Z M42.4696488,22.6449742 L43.3273898,22.6449742 L45.3592832,27.9691527 L44.5282274,27.9691527 L43.9602122,26.3744362 L41.7453341,26.3744362 L41.139197,27.9691527 L40.3615118,27.9691527 L42.4696488,22.6449742 Z M47.5507017,22.6449742 L48.4465646,22.6449742 L51.2752041,26.9579575 L51.2752041,22.6449742 L51.9957066,22.6449742 L51.9957066,27.9691527 L51.1455899,27.9691527 L48.2750164,23.6597938 L48.2750164,27.9691527 L47.5507017,27.9691527 L47.5507017,22.6449742 Z M56.8404042,27.3530122 C57.0970925,27.3530122 57.3080311,27.327642 57.4732265,27.2769008 C57.7680368,27.1826671 58.0094726,27.0014511 58.1975412,26.7332474 C58.3474878,26.5182012 58.4554986,26.242753 58.5215768,25.9068943 C58.5596988,25.7063456 58.5787595,25.5202972 58.5787595,25.3487436 C58.5787595,24.6891075 58.4408869,24.1768704 58.1651377,23.8120168 C57.8893884,23.4471631 57.4452736,23.264739 56.8327799,23.264739 L55.4870794,23.264739 L55.4870794,27.3530122 L56.8404042,27.3530122 Z M54.7246429,22.6449742 L56.9928915,22.6449742 C57.7629563,22.6449742 58.3601922,22.9047171 58.7846174,23.4242107 C59.1632961,23.892963 59.3526326,24.493392 59.3526326,25.2255155 C59.3526326,25.7909178 59.2408097,26.3019468 59.0171605,26.7586179 C58.623233,27.5656451 57.945942,27.9691527 56.9852672,27.9691527 L54.7246429,27.9691527 L54.7246429,22.6449742 Z M65.9960939,26.2512081 C66.0138842,26.5532393 66.0888563,26.7984849 66.2210127,26.9869523 C66.472618,27.3397247 66.9160974,27.5161082 67.5514644,27.5161082 C67.8361088,27.5161082 68.0953346,27.4774488 68.3291496,27.4001289 C68.7815309,27.2503214 69.0077181,26.9821218 69.0077181,26.5955219 C69.0077181,26.305572 68.9124145,26.0989858 68.7218044,25.9757571 C68.5286529,25.8549446 68.2262228,25.7498394 67.814505,25.6604381 L67.0558806,25.4973421 C66.5602944,25.3910272 66.2095771,25.2738408 66.0037182,25.1457796 C65.6479128,24.9234847 65.4700127,24.5912554 65.4700127,24.1490818 C65.4700127,23.6706645 65.6441006,23.2780299 65.9922817,22.9711662 C66.3404628,22.6643026 66.8335001,22.5108731 67.4714086,22.5108731 C68.0584876,22.5108731 68.5572432,22.6455769 68.9676902,22.9149887 C69.3781373,23.1844005 69.5833577,23.6150905 69.5833577,24.2070715 L68.8704796,24.2070715 C68.8323576,23.9219541 68.7510318,23.7032868 68.6264999,23.5510631 C68.3952263,23.2731945 68.0025754,23.1342622 67.4485355,23.1342622 C67.0012371,23.1342622 66.6797463,23.2236621 66.4840533,23.4024646 C66.2883602,23.581267 66.1905152,23.7890613 66.1905152,24.0258537 C66.1905152,24.2868087 66.3048795,24.4776895 66.5336116,24.5985019 C66.6835582,24.6758219 67.0228391,24.7724704 67.5514644,24.8884504 L68.336774,25.0587951 C68.7154527,25.1409476 69.0077171,25.2533015 69.213576,25.3958602 C69.5693815,25.6447338 69.7472816,26.0059577 69.7472816,26.4795425 C69.7472816,27.0691073 69.5217297,27.4907365 69.0706192,27.7444427 C68.6195086,27.9981488 68.0953388,28.125 67.4980938,28.125 C66.8017317,28.125 66.256595,27.9558651 65.8626675,27.6175902 C65.46874,27.2817316 65.2755913,26.8262754 65.2832157,26.2512081 L65.9960939,26.2512081 Z M72.2817965,22.6449742 L76.3646441,22.6449742 L76.3646441,23.2973582 L73.0213599,23.2973582 L73.0213599,24.9138209 L76.11304,24.9138209 L76.11304,25.5299613 L73.0213599,25.5299613 L73.0213599,27.3348905 L76.4218268,27.3348905 L76.4218268,27.9691527 L72.2817965,27.9691527 L72.2817965,22.6449742 Z M81.7926056,25.7872906 L80.9424889,23.4350838 L80.0390016,25.7872906 L81.7926056,25.7872906 Z M80.5460219,22.6449742 L81.403763,22.6449742 L83.4356564,27.9691527 L82.6046005,27.9691527 L82.0365853,26.3744362 L79.8217072,26.3744362 L79.2155702,27.9691527 L78.4378849,27.9691527 L80.5460219,22.6449742 Z M88.2307956,25.0841656 C88.5866011,25.0841656 88.8680644,25.0165116 89.075194,24.8812017 C89.2823237,24.7458917 89.3858869,24.5018542 89.3858869,24.1490818 C89.3858869,23.7697307 89.2410254,23.5111959 88.9512981,23.3734697 C88.7962686,23.3009822 88.5891421,23.264739 88.3299123,23.264739 L86.4771916,23.264739 L86.4771916,25.0841656 L88.2307956,25.0841656 Z M85.7185672,22.6449742 L88.3108514,22.6449742 C88.737818,22.6449742 89.089806,22.7041714 89.366826,22.8225677 C89.8929098,23.0496951 90.1559478,23.468908 90.1559478,24.0802191 C90.1559478,24.399164 90.0866939,24.660115 89.9481839,24.8630799 C89.8096739,25.0660448 89.6158899,25.2291392 89.366826,25.3523679 C89.5853922,25.4369366 89.7499498,25.5480824 89.8605037,25.6858086 C89.9710575,25.8235348 90.0326872,26.0470345 90.0453945,26.3563144 L90.0720798,27.0703125 L90.0830927,27.2559604 C90.0926938,27.3681811 90.1068129,27.4573128 90.1254503,27.523357 C90.1711968,27.6924944 90.2525225,27.801224 90.36943,27.849549 L90.36943,27.9691527 L89.4392575,27.9691527 C89.4138428,27.923244 89.3935114,27.8640468 89.3782626,27.7915593 C89.3651921,27.7294272 89.3539891,27.6175909 89.3446531,27.4560478 L89.2943945,26.4831669 C89.2766043,26.135227 89.1406378,25.9020624 88.886491,25.7836662 C88.7416273,25.7184275 88.5141694,25.6858086 88.2041103,25.6858086 L86.4771916,25.6858086 L86.4771916,27.9691527 L85.7185672,27.9691527 L85.7185672,22.6449742 Z M95.1264474,22.5 C95.835517,22.5 96.3857365,22.6775917 96.7771225,23.0327803 C97.1685086,23.3879689 97.3858008,23.7914765 97.4290057,24.2433151 L96.6894423,24.2433151 C96.6055739,23.9002077 96.4384749,23.6283837 96.1881403,23.4278351 C95.9378057,23.2272864 95.5864531,23.1270135 95.1340718,23.1270135 C94.5825733,23.1270135 94.1371878,23.3112498 93.7979018,23.6797278 C93.4586159,24.0482058 93.2889754,24.6129956 93.2889754,25.374114 C93.2889754,25.9975063 93.4420966,26.5030989 93.7483434,26.8909069 C94.0545903,27.2787149 94.5114123,27.472616 95.1188231,27.472616 C95.677946,27.472616 96.1036355,27.268446 96.3959043,26.8600999 C96.5509338,26.6450537 96.6665688,26.3623568 96.7428129,26.0120006 L97.4823763,26.0120006 C97.4162981,26.5725705 97.1977352,27.0425239 96.8266809,27.421875 C96.381924,27.8785461 95.7821466,28.1068782 95.0273307,28.1068782 C94.3767149,28.1068782 93.8303076,27.9196217 93.3880922,27.5451031 C92.8060961,27.049772 92.5151024,26.2850406 92.5151024,25.250886 C92.5151024,24.465605 92.7336653,23.8216842 93.1707978,23.3191044 C93.6435108,22.7730321 94.2953875,22.5 95.1264474,22.5 Z M99.9253989,22.6449742 L100.691648,22.6449742 L100.691648,24.8449581 L103.604155,24.8449581 L103.604155,22.6449742 L104.370404,22.6449742 L104.370404,27.9691527 L103.604155,27.9691527 L103.604155,25.4792204 L100.691648,25.4792204 L100.691648,27.9691527 L99.9253989,27.9691527 L99.9253989,22.6449742 Z" id="DATAGRANDSEARCH" stroke-width="0.4"></path>
                    </g>
                    <path d="M7.86911837,1.49408906 C9.29212898,0.721699848 11.1858598,0.924491701 13.2989358,2.05129199 L13.3915793,2.10203372 L13.58684,2.19928898 C13.7533546,2.2847816 13.9217956,2.37666993 14.0919338,2.47489923 C14.3971917,2.65113997 14.7082482,2.84799736 15.0230462,3.06475787 L15.1590719,3.15963748 L15.1590719,3.15963748 L15.2565793,3.22903372 L15.4626888,3.08361993 L15.4626888,3.08361993 L15.7287682,2.90303533 C18.2868885,1.21188531 20.67101,0.84361853 22.4419228,1.86605553 C24.2128357,2.88849255 25.0859681,5.13733573 24.9005078,8.19834166 C24.8876295,8.4108763 24.86915,8.62608949 24.846383,8.84312386 C25.0571815,8.93335694 25.2640973,9.02619578 25.4658404,9.12225426 C28.3710461,10.5058661 29.9991061,12.3447293 30.0505319,14.3004974 C30.0807147,15.4477332 29.5655046,16.5270134 28.5619309,17.4729667 C28.4459303,17.0745135 28.2917827,16.6914662 28.1041912,16.3286406 C28.7571588,15.6288475 29.0964166,14.8764367 29.0773234,14.1182844 C29.0389033,12.5934104 27.549908,11.0204271 24.9930053,9.80354508 C24.8935746,9.75621543 24.7926691,9.70977308 24.6909107,9.66386565 C24.4896417,10.749466 24.1848209,11.8709767 23.784611,13.0046828 C23.3426183,12.9077943 22.8851704,12.8571429 22.4159364,12.8571429 C22.1069675,12.8571429 21.8031086,12.8791033 21.5058244,12.9215541 C21.2017014,12.3072815 20.868859,11.6930413 20.509692,11.0836119 C19.9428939,10.1218768 19.3327781,9.20972785 18.6919131,8.36124042 C17.6366975,8.2304953 16.5416382,8.15816089 15.4253807,8.1481834 C14.3091519,8.13822248 13.2152854,8.19096533 12.1622538,8.30283988 C11.536623,9.13999566 10.9428451,10.0414382 10.3933572,10.9931793 C9.84386917,11.9449204 9.36011842,12.9098121 8.947907,13.8701857 C9.37753658,14.8380751 9.87879318,15.8117627 10.4455627,16.7734812 C11.0123321,17.7351999 11.6224766,18.6473653 12.2633416,19.4958527 C13.3185859,19.6266144 14.4136165,19.6989323 15.529874,19.7089098 C15.6955597,19.7103931 15.8607518,19.7104938 16.0253902,19.7092238 C16.0443334,20.007655 16.0841658,20.3018349 16.1430807,20.5890206 C15.3478561,20.5702824 14.5601297,20.5242846 13.7851089,20.4531554 C14.5922311,21.361422 15.4270523,22.1830365 16.2734815,22.8987928 C16.4581211,22.7449266 16.6419152,22.5855899 16.8246868,22.4209988 C16.9494049,22.6470188 17.0891305,22.8653399 17.2410927,23.0741185 L17.1336579,23.1743075 L17.1336579,23.1743075 L16.7304686,23.5283936 C16.8211222,23.593536 16.9117786,23.6577315 17.002483,23.7201765 C17.9912303,24.4010147 18.9393516,24.8835935 19.8056748,25.1581224 C20.6026269,25.5154084 21.4861433,25.7142857 22.4159364,25.7142857 C23.0202605,25.7142857 23.6050354,25.6302716 24.1593007,25.4732447 C23.8588573,25.839363 23.5005222,26.138175 23.0862595,26.3630385 C21.5804356,27.1804053 19.547216,26.9055745 17.2851448,25.5995671 C16.9641097,25.4142174 16.638819,25.2084165 16.3094236,24.9817008 C16.1253631,24.8550154 15.9415043,24.7222404 15.7579609,24.5848001 C15.5813712,24.7130616 15.404276,24.8366613 15.2266097,24.9540922 C12.668415,26.645236 10.2842935,27.0135028 8.51338065,25.9910658 C6.74246781,24.9686288 5.86933543,22.7197856 6.05487007,19.6587859 C6.06773507,19.4462069 6.08621459,19.2309937 6.10898159,19.0139593 C5.89815381,18.9237093 5.69120874,18.8308536 5.48946572,18.7347951 C5.12870805,18.5629407 4.78743537,18.3840112 4.46657566,18.1987628 C2.2042413,16.8926034 0.949881707,15.2694228 0.904832663,13.5565857 C0.853390961,11.6008451 2.38696887,9.84254106 5.22305436,8.60562054 C5.42002507,8.51971617 5.62233151,8.43733302 5.82868705,8.35772832 C5.794449,8.13921684 5.76462832,7.92277833 5.74055166,7.70928891 C5.39368427,4.63468965 6.14963132,2.42742023 7.86911837,1.49408906 Z M7.64233177,19.71373 C7.63161506,19.8175783 7.62175968,19.9210254 7.61342866,20.023673 C7.3990378,22.6632434 8.01951999,24.6063501 9.31573274,25.3547189 C10.6119455,26.1030877 12.6049368,25.6688706 14.7836764,24.1634175 C14.8684063,24.1048788 14.9530665,24.0446202 15.0376898,23.9834029 C13.9840474,23.053569 12.9580945,21.9507434 11.9943042,20.7152971 C10.4425107,20.4983704 8.97444227,20.1613112 7.64233177,19.71373 Z M8.54999512,15.2253502 C8.17695609,16.3259025 7.89587463,17.4099269 7.71523227,18.4549371 C8.758295,18.8300769 9.88726377,19.1422533 11.0774266,19.3871147 C10.6137444,18.7308988 10.1665022,18.0496137 9.73965443,17.3467041 C9.31282142,16.6438446 8.9158413,15.9350694 8.54999512,15.2253502 Z M6.04541759,9.49361739 C5.9458734,9.53462239 5.8471595,9.57614631 5.74999497,9.61868327 C3.25093397,10.7122219 1.83960566,12.2140081 1.87798377,13.7388864 C1.91639325,15.2637828 3.40534724,16.8365582 5.96231536,18.0536311 C6.06174635,18.1009607 6.16270064,18.1473915 6.26441086,18.1933104 C6.52323897,16.7972271 6.95334128,15.341723 7.53732248,13.8772955 C6.87886025,12.3824704 6.37490116,10.9040965 6.04541759,9.49361739 Z M20.9463453,8.46828632 C21.4100091,9.12444574 21.8572297,9.80575518 22.2840741,10.5086577 C22.7109366,11.2115291 23.1079285,11.9203472 23.473772,12.6300593 C23.8468243,11.529488 24.1278693,10.4454564 24.3085089,9.40045746 C23.2654049,9.02533275 22.1364465,8.71315857 20.9463453,8.46828632 Z M10.5356791,8.33607107 C9.50069368,8.53845919 8.52008451,8.80240199 7.61540701,9.1244285 C7.78886262,10.0689155 8.05055792,11.050103 8.39282194,12.0476085 C8.70137792,11.4136608 9.03711956,10.7810502 9.39902969,10.1542035 C9.7609398,9.52735684 10.1409422,8.92026225 10.5356791,8.33607107 Z M22.7080343,2.50069061 C21.4117817,1.7522988 19.4187712,2.18652485 17.2399918,3.69202892 C17.1553074,3.75055617 17.0706928,3.81080334 16.9860855,3.87199227 C18.0397357,4.80183471 19.0656958,5.90467093 20.0294629,7.14011242 C21.5812702,7.35703847 23.0493344,7.69412781 24.3814266,8.14169445 C24.3920972,8.03785727 24.4019655,7.93445524 24.4102968,7.83180648 C24.6247414,5.19219312 24.004287,3.24908243 22.7080343,2.50069061 Z M13.3385416,2.07585366 C11.6932328,1.28502125 10.2520277,1.13649575 9.24420014,1.68501152 C7.90441892,2.41423148 7.30949476,4.38730284 7.61201823,7.0983475 C7.62376283,7.20376205 7.63715946,7.31001184 7.65142059,7.41672125 C9.0376832,6.99680308 10.569965,6.69406703 12.1937628,6.51687866 C13.170026,5.27895576 14.2154695,4.1787386 15.2950595,3.25654009 L15.2950595,3.25654009 L15.2565793,3.22903372 L15.197417,3.27232746 L15.197417,3.27232746 C15.0138443,3.13487026 14.8299564,3.00207843 14.6458958,2.87539306 C14.2803026,2.62379593 13.9193475,2.39756957 13.5641945,2.19695087 L13.3915793,2.10203372 Z M15.7502734,4.95660962 C14.9355864,5.63555398 14.1373501,6.42095744 13.3707437,7.29432495 C14.1683068,7.25630039 14.9805868,7.24569186 15.8027358,7.2639324 C16.6249028,7.28214189 17.4385396,7.32882562 18.2386533,7.40226259 C17.4315395,6.49399584 16.5966938,5.67236338 15.7502734,4.95660962 Z" id="形状结合" fill="url(#linearGradient-1)" fill-rule="nonzero"></path>
                    <g id="编组" transform="translate(15.360583, 14.180658) rotate(-30.000000) translate(-15.360583, -14.180658) translate(10.360583, 9.180658)">
                        <g id="编组-3" transform="translate(0.924418, 0.535714)">
                            <g>
                                <g id="形状" transform="translate(0.711617, 0.714286)" fill="#3674EA" fill-rule="nonzero">
                                    <path d="M6.07222811,6.095 C5.37555504,6.79357143 4.5379818,7.14285714 3.55808515,7.14285714 C2.5781885,7.14285714 1.74061525,6.79357143 1.04394218,6.095 C0.347980727,5.39571429 0,4.555 0,3.57142857 C0,2.58857143 0.347980727,1.74714286 1.04394218,1.04785714 C1.74061525,0.349285714 2.5781885,0 3.55808515,0 C4.5379818,0 5.37555504,0.349285714 6.07222811,1.04785714 C6.76818957,1.74714286 7.11617029,2.58857143 7.11617029,3.57142857 C7.11617029,4.555 6.76818957,5.39571429 6.07222811,6.095 Z M0.154420895,3.41642857 L6.96103778,3.41642857 L6.96103778,3.72714286 L0.154420895,3.72714286 L0.154420895,3.41642857 Z M5.85945462,1.26142857 C5.2275387,0.627857143 4.46041554,0.310714286 3.55808515,0.310714286 C2.65575475,0.310714286 1.8886316,0.627857143 1.25671567,1.26142857 C0.625511369,1.89571429 0.309553408,2.66571429 0.309553408,3.57142857 C0.309553408,4.47714286 0.625511369,5.24785714 1.25671567,5.88142857 C1.8886316,6.515 2.65575475,6.83214286 3.55808515,6.83214286 C4.46041554,6.83214286 5.2275387,6.515 5.85945462,5.88071429 C6.49065892,5.24785714 6.80661688,4.47714286 6.80661688,3.57142857 C6.80661688,2.66571429 6.49065892,1.89571429 5.85945462,1.26142857 Z M0.947162266,1.43642857 L1.10158316,1.165 C1.74701981,1.52714286 2.56537939,1.70785714 3.55808515,1.70785714 C4.5507909,1.70785714 5.36915049,1.52642857 6.01387551,1.16428571 L6.16829641,1.43571429 C5.47233495,1.82428571 4.60202733,2.01857143 3.55808515,2.01857143 C2.51414296,2.01857143 1.64383534,1.82428571 0.947162266,1.43642857 Z M6.01387551,5.97857143 C5.36915049,5.61642857 4.5507909,5.435 3.55808515,5.435 C2.56537939,5.435 1.74701981,5.61642857 1.10229478,5.97857143 L0.947873883,5.70714286 C1.65664444,5.31857143 2.52695207,5.12428571 3.55808515,5.12428571 C4.60202733,5.12428571 5.47233495,5.31857143 6.16900803,5.70642857 L6.01387551,5.97857143 Z M4.87315342,6.11428571 C4.51236358,6.8 4.07400749,7.14285714 3.55808515,7.14285714 C3.0421628,7.14285714 2.60380671,6.79642857 2.24301688,6.10428571 C1.88222704,5.41285714 1.70147632,4.56785714 1.70147632,3.57142857 C1.70147632,2.575 1.88222704,1.73071429 2.24301688,1.03857143 C2.60380671,0.346428571 3.0421628,0 3.55808515,0 C4.07400749,0 4.51236358,0.346428571 4.87315342,1.03857143 C5.23394325,1.73071429 5.41469398,2.575 5.41469398,3.57142857 C5.41469398,4.56785714 5.23394325,5.415 4.87315342,6.11428571 Z M4.64116626,1.28071429 C4.33161286,0.634285714 3.97082302,0.310714286 3.55808515,0.310714286 C3.14534727,0.310714286 2.78455744,0.634285714 2.47500403,1.28071429 C2.16545062,1.92857143 2.01102972,2.69142857 2.01102972,3.57142857 C2.01102972,4.45142857 2.16545062,5.215 2.47500403,5.86142857 C2.78455744,6.50928571 3.14534727,6.83214286 3.55808515,6.83214286 C3.97082302,6.83214286 4.33161286,6.50928571 4.64116626,5.86142857 C4.95071967,5.215 5.10514057,4.45142857 5.10514057,3.57142857 C5.10514057,2.69142857 4.95071967,1.92857143 4.64116626,1.28071429 Z M3.40366425,0.155 L3.71321766,0.155 L3.71321766,6.98714286 L3.40366425,6.98714286 L3.40366425,0.155 Z"></path>
                                </g>
                                <ellipse id="椭圆形" stroke="#3674EA" stroke-width="0.6" cx="4.26970218" cy="4.28571429" rx="3.96970218" ry="3.98571429"></ellipse>
                            </g>
                        </g>
                    </g>
                    <ellipse id="椭圆形" fill="#4C89EE" cx="24.5507875" cy="6.42857143" rx="1.06742554" ry="1.07142857"></ellipse>
                    <ellipse id="椭圆形备份" fill="#4683EC" cx="4.26970218" cy="17.1428571" rx="1.06742554" ry="1.07142857"></ellipse>
                    <ellipse id="椭圆形备份-2" fill="#6DAAF4" cx="8.53940435" cy="1.60714286" rx="1.06742554" ry="1.07142857"></ellipse>
                    <g id="编组备份-3" transform="translate(14.008060, 10.848214)" fill="url(#linearGradient-2)" fill-rule="nonzero">
                        <path d="M8.00569158,0.535714286 C12.1323515,0.535714286 15.4776704,3.89357866 15.4776704,8.03571429 C15.4776704,9.54509312 15.0334634,10.9503328 14.2691106,12.1269067 L18.9030667,16.3460533 C19.2032,16.6548317 19.2948623,17.1134947 19.1383063,17.5172819 C18.9837837,17.9199055 18.6090637,18.1930018 18.1819355,18.2142857 L18.1389435,18.1774289 C17.8674075,18.1685265 17.6093574,18.0558151 17.4170012,17.8620981 L13.2221487,13.4054585 C11.8756128,14.7235925 10.0351384,15.5357143 8.00569158,15.5357143 C3.87903163,15.5357143 0.533712772,12.1778499 0.533712772,8.03571429 C0.533712772,3.89357866 3.87903163,0.535714286 8.00569158,0.535714286 Z M8.00569158,2.14285714 C4.76331591,2.14285714 2.13485109,4.78117915 2.13485109,8.03571429 C2.13485109,11.2902494 4.76331591,13.9285714 8.00569158,13.9285714 C11.2480673,13.9285714 13.8765321,11.2902494 13.8765321,8.03571429 C13.8765321,4.78117915 11.2480673,2.14285714 8.00569158,2.14285714 Z" id="形状结合"></path>
                    </g>
                </g>
            </g>
        </g>
    </g>
</svg>