<?xml version="1.0" encoding="UTF-8"?>
<svg width="35px" height="30px" viewBox="0 0 35 30" version="1.1" xmlns="http://www.w3.org/2000/svg" xmlns:xlink="http://www.w3.org/1999/xlink">
    <defs>
        <rect id="path-1" x="0" y="-1.21807326e-13" width="35.3076923" height="30"></rect>
        <linearGradient x1="-41.4632842%" y1="19.8112892%" x2="79.5179027%" y2="83.5328722%" id="linearGradient-3">
            <stop stop-color="#A5E2FF" offset="0%"></stop>
            <stop stop-color="#003EDF" offset="100%"></stop>
        </linearGradient>
        <linearGradient x1="-34.2832225%" y1="-38.449807%" x2="94.7426185%" y2="91.3863999%" id="linearGradient-4">
            <stop stop-color="#A5E2FF" offset="0%"></stop>
            <stop stop-color="#003EDF" offset="100%"></stop>
        </linearGradient>
    </defs>
    <g id="页面-1" stroke="none" stroke-width="1" fill="none" fill-rule="evenodd">
        <g id="无图表备份" transform="translate(-16.000000, -11.000000)">
            <g id="达观智能搜索logo备份" transform="translate(16.000000, 11.000000)">
                <g id="编组-4">
                    <g id="编组-2" transform="translate(0.000000, 0.000000)">
                        <mask id="mask-2" fill="white">
                            <use xlink:href="#path-1"></use>
                        </mask>
                        <g id="蒙版"></g>
                        <g mask="url(#mask-2)">
                            <g transform="translate(0.790210, -0.357143)">
                                <path d="M7.08920183,1.83620789 C8.51393183,1.06481137 10.4112012,1.26964618 12.5291404,2.3992543 L12.623562,2.45082835 L12.5688409,2.42387061 C11.0022836,1.6705511 9.62084313,1.49744075 8.62148657,1.95169467 L8.46689736,2.02863941 C7.12549935,2.75692591 6.5315329,4.7305502 6.83734312,7.44349247 C6.84921549,7.54898078 6.86274363,7.65530651 6.87713828,7.762093 C8.26541372,7.34333695 9.80008435,7.04198009 11.4265597,6.86633755 C12.4032831,5.62868038 13.4494485,4.52888001 14.5300014,3.60723741 L14.5300014,3.60723741 L14.491562,3.57982835 L14.69775,3.43438613 L14.69775,3.43438613 L14.9641141,3.25396593 C17.5250178,1.56442293 19.9129606,1.19836237 21.6880286,2.22319835 C23.4630966,3.24803433 24.3400502,5.49908373 24.1573736,8.56169676 C24.1446885,8.77434299 24.1263951,8.98966365 24.1038086,9.20680219 C24.3150697,9.29730237 24.522444,9.39040589 24.7246396,9.48672569 C27.6363635,10.8741008 29.2691568,12.7156967 29.3226601,14.6726643 C29.3539981,15.8182836 28.841121,16.8956301 27.8407466,17.8397477 C27.7251232,17.4387802 27.570701,17.054722 27.3825975,16.69095 C28.0309617,15.9946951 28.3673745,15.2450564 28.3475539,14.4893556 C28.3075169,12.9635482 26.8143032,11.3881293 24.2516647,10.1679357 C24.1520109,10.1204773 24.0508807,10.0739052 23.9488966,10.0278675 C23.7488937,11.1110982 23.4457276,12.2299704 23.0474885,13.3609468 C22.6064109,13.2648524 22.1482633,13.2142857 21.6783217,13.2142857 C21.3661866,13.2142857 21.0592545,13.2365938 20.7590286,13.2797047 C20.4547251,12.6665135 20.1213673,12.0529734 19.7617625,11.4441984 C19.1929898,10.4813233 18.5808737,9.56801947 17.9380188,8.71838321 C16.8808135,8.58648932 15.7837536,8.51299991 14.6655217,8.50188247 C13.5473185,8.49078163 12.4515807,8.54244406 11.3968097,8.65331437 C10.7709284,9.49032558 10.1770216,10.3916936 9.62753358,11.3434347 C9.0780456,12.2951758 8.59442389,13.260142 8.18246281,14.2206601 C8.61383179,15.1895537 9.11695973,16.1643218 9.68570368,17.1271803 C10.2544476,18.0900389 10.8665925,19.0033593 11.5094474,19.8529955 C12.5666814,19.984906 13.6637125,20.0583789 14.7819445,20.0694963 C14.9463355,20.0711331 15.1102401,20.0714121 15.2735998,20.0703452 C15.2921388,20.3682427 15.3322717,20.6627042 15.3915687,20.9501492 C14.5965696,20.930957 13.8093976,20.8841859 13.0348652,20.8124058 C13.8443305,21.7220252 14.6814555,22.5449699 15.5301014,23.262006 C15.7135607,23.1093595 15.8961797,22.951318 16.0777854,22.7880931 C16.204582,23.0133248 16.3451223,23.2315951 16.4979351,23.44029 L16.3920714,23.5385562 L16.3920714,23.5385562 L15.9885323,23.8924404 C16.0794117,23.957713 16.1702928,24.0220383 16.2612203,24.0846121 C17.2745272,24.7820852 18.2450886,25.2721832 19.1288251,25.5443942 C19.909399,25.8833171 20.7719232,26.0714286 21.6783217,26.0714286 C22.2923982,26.0714286 22.8863366,25.9850866 23.4486913,25.8238644 C23.1451767,26.2008391 22.7808893,26.506441 22.3583878,26.7352054 C20.8507444,27.5515217 18.8136677,27.2744641 16.5462889,25.9653923 C16.2245005,25.7796077 15.8984283,25.5733556 15.568223,25.3461722 C15.3837098,25.2192255 15.1993926,25.0861859 15.0153866,24.9484785 C14.8386164,25.0766358 14.6613352,25.2001281 14.4834755,25.3174474 C11.9224973,27.0069841 9.53455445,27.3730446 7.75948648,26.3482087 C5.9844185,25.3233727 5.10746484,23.0723233 5.29021603,20.0097166 C5.30288769,19.7970259 5.32118108,19.5817052 5.34376763,19.3645667 C5.13247716,19.2740496 4.92507358,19.1809291 4.72287796,19.0846093 C4.36131084,18.9122876 4.01925582,18.7329064 3.69764326,18.5472233 C1.43000074,17.2379993 0.17178466,15.6125922 0.12491612,13.8987046 C0.0713968847,11.9417645 1.60588708,10.1839871 4.44570665,8.94922249 C4.64293671,8.86346785 4.84551545,8.78124192 5.05215325,8.70180018 C5.01763294,8.48312574 4.98753989,8.26652997 4.96320396,8.05289086 C4.61260241,4.97613568 5.36763718,2.76833956 7.08920183,1.83620789 Z M6.88052708,20.0663057 C6.86989702,20.170204 6.86012939,20.2737018 6.851888,20.3764011 C6.63980165,23.017302 7.2633499,24.962179 8.56260398,25.7123036 C9.86185807,26.4624283 11.8579154,26.0299814 14.0389595,24.5258588 C14.123779,24.4673718 14.208527,24.407164 14.293237,24.3459967 C13.2367957,23.4145469 12.2079169,22.310032 11.2411754,21.0728818 C9.68643076,20.8542513 8.21543648,20.5155029 6.88052708,20.0663057 Z M7.78522754,15.5762153 C7.41265021,16.6770341 7.13217547,17.7614088 6.95227694,18.8068485 C7.99755634,19.1832681 9.12882896,19.4967746 10.321335,19.7429889 C9.85617006,19.0859169 9.4074487,18.4037778 8.97913562,17.7000222 C8.55083739,16.9963167 8.15243858,16.2867225 7.78522754,15.5762153 Z M5.27041922,9.83857573 C5.17074153,9.87950365 5.0718961,9.92095163 4.9746038,9.96341482 C2.47225612,11.0550559 1.05997004,12.5562891 1.09996494,14.0821008 C1.13999129,15.6079307 2.63316337,17.1831415 5.19586763,18.4035261 C5.29552168,18.4509846 5.3967008,18.4975452 5.49863666,18.5435943 C5.75650183,17.146955 6.18588223,15.6910342 6.76940325,14.2263409 C6.10826357,12.72997 5.60191563,11.250217 5.27041922,9.83857573 Z M20.196527,8.82778239 C20.6616734,9.48479777 21.1103732,10.1669612 21.5386829,10.8707097 C21.9670107,11.5744271 22.3654213,12.2840643 22.7326296,12.9945644 C23.1052203,11.8937265 23.3856584,10.8093446 23.5655542,9.76391624 C22.5202335,9.3875117 21.3889713,9.0740074 20.196527,8.82778239 Z M9.76740638,8.68491247 C8.73080529,8.88636778 7.74873865,9.14946911 6.84279633,9.47076538 C7.01751677,10.4159826 7.28066946,11.3980116 7.62454923,12.3964499 C7.93300411,11.7624438 8.26869384,11.1298032 8.63060397,10.5029566 C8.99251408,9.8761099 9.37256844,9.26904527 9.76740638,8.68491247 Z M21.9552532,2.85847606 C20.6559591,2.10832827 18.6598826,2.54078416 16.4787986,4.04495772 C16.3940247,4.10343326 16.3093224,4.1636298 16.2246284,4.22476866 C17.2810775,5.15622703 18.3099635,6.26075251 19.2766817,7.49789786 C20.8314402,7.71652778 22.3024303,8.05530638 23.6373214,8.50448894 C23.6479053,8.40060169 23.6576859,8.29714904 23.6659276,8.19444853 C23.8780677,5.5535047 23.2545472,3.60862384 21.9552532,2.85847606 Z M14.9877435,5.30876666 C14.1723127,5.98728156 13.3734697,6.77233472 12.6064016,7.64543567 C13.4053296,7.60819913 14.2190281,7.59840964 15.0426425,7.61749617 C15.8662747,7.63655166 16.6813908,7.68408941 17.4829871,7.75838237 C16.6735302,6.84876282 15.8363806,6.02580022 14.9877435,5.30876666 Z" id="形状结合" fill="url(#linearGradient-3)" fill-rule="nonzero"></path>
                                <g id="编组" stroke-width="1" fill="none" fill-rule="evenodd" transform="translate(14.595986, 14.543789) rotate(-30.000000) translate(-14.595986, -14.543789) translate(9.595986, 9.543789)">
                                    <g id="编组-3" transform="translate(0.926587, 0.535714)">
                                        <g>
                                            <g id="形状" transform="translate(0.713287, 0.714286)" fill="#3674EA" fill-rule="nonzero">
                                                <path d="M6.08647552,6.095 C5.38816783,6.79357143 4.54862937,7.14285714 3.56643357,7.14285714 C2.58423776,7.14285714 1.7446993,6.79357143 1.04639161,6.095 C0.348797203,5.39571429 0,4.555 0,3.57142857 C0,2.58857143 0.348797203,1.74714286 1.04639161,1.04785714 C1.7446993,0.349285714 2.58423776,0 3.56643357,0 C4.54862937,0 5.38816783,0.349285714 6.08647552,1.04785714 C6.78406993,1.74714286 7.13286713,2.58857143 7.13286713,3.57142857 C7.13286713,4.555 6.78406993,5.39571429 6.08647552,6.095 Z M0.154783217,3.41642857 L6.97737063,3.41642857 L6.97737063,3.72714286 L0.154783217,3.72714286 L0.154783217,3.41642857 Z M5.8732028,1.26142857 C5.2398042,0.627857143 4.47088112,0.310714286 3.56643357,0.310714286 C2.66198601,0.310714286 1.89306294,0.627857143 1.25966434,1.26142857 C0.626979021,1.89571429 0.31027972,2.66571429 0.31027972,3.57142857 C0.31027972,4.47714286 0.626979021,5.24785714 1.25966434,5.88142857 C1.89306294,6.515 2.66198601,6.83214286 3.56643357,6.83214286 C4.47088112,6.83214286 5.2398042,6.515 5.8732028,5.88071429 C6.50588811,5.24785714 6.82258741,4.47714286 6.82258741,3.57142857 C6.82258741,2.66571429 6.50588811,1.89571429 5.8732028,1.26142857 Z M0.949384615,1.43642857 L1.10416783,1.165 C1.75111888,1.52714286 2.5713986,1.70785714 3.56643357,1.70785714 C4.56146853,1.70785714 5.38174825,1.52642857 6.02798601,1.16428571 L6.18276923,1.43571429 C5.48517483,1.82428571 4.61282517,2.01857143 3.56643357,2.01857143 C2.52004196,2.01857143 1.64769231,1.82428571 0.949384615,1.43642857 Z M6.02798601,5.97857143 C5.38174825,5.61642857 4.56146853,5.435 3.56643357,5.435 C2.5713986,5.435 1.75111888,5.61642857 1.10488112,5.97857143 L0.950097902,5.70714286 C1.66053147,5.31857143 2.53288112,5.12428571 3.56643357,5.12428571 C4.61282517,5.12428571 5.48517483,5.31857143 6.18348252,5.70642857 L6.02798601,5.97857143 Z M4.88458741,6.11428571 C4.52295105,6.8 4.08356643,7.14285714 3.56643357,7.14285714 C3.0493007,7.14285714 2.60991608,6.79642857 2.24827972,6.10428571 C1.88664336,5.41285714 1.70546853,4.56785714 1.70546853,3.57142857 C1.70546853,2.575 1.88664336,1.73071429 2.24827972,1.03857143 C2.60991608,0.346428571 3.0493007,0 3.56643357,0 C4.08356643,0 4.52295105,0.346428571 4.88458741,1.03857143 C5.24622378,1.73071429 5.4273986,2.575 5.4273986,3.57142857 C5.4273986,4.56785714 5.24622378,5.415 4.88458741,6.11428571 Z M4.65205594,1.28071429 C4.34177622,0.634285714 3.98013986,0.310714286 3.56643357,0.310714286 C3.15272727,0.310714286 2.79109091,0.634285714 2.48081119,1.28071429 C2.17053147,1.92857143 2.01574825,2.69142857 2.01574825,3.57142857 C2.01574825,4.45142857 2.17053147,5.215 2.48081119,5.86142857 C2.79109091,6.50928571 3.15272727,6.83214286 3.56643357,6.83214286 C3.98013986,6.83214286 4.34177622,6.50928571 4.65205594,5.86142857 C4.96233566,5.215 5.11711888,4.45142857 5.11711888,3.57142857 C5.11711888,2.69142857 4.96233566,1.92857143 4.65205594,1.28071429 Z M3.41165035,0.155 L3.72193007,0.155 L3.72193007,6.98714286 L3.41165035,6.98714286 L3.41165035,0.155 Z"></path>
                                            </g>
                                            <ellipse id="椭圆形" stroke="#3674EA" stroke-width="0.6" cx="4.27972028" cy="4.28571429" rx="3.97972028" ry="3.98571429"></ellipse>
                                        </g>
                                    </g>
                                </g>
                                <ellipse id="椭圆形" fill="#4C89EE" fill-rule="evenodd" cx="23.8181818" cy="6.78571429" rx="1.06993007" ry="1.07142857"></ellipse>
                                <ellipse id="椭圆形备份" fill="#4683EC" fill-rule="evenodd" cx="3.48951049" cy="17.5" rx="1.06993007" ry="1.07142857"></ellipse>
                                <ellipse id="椭圆形备份-2" fill="#6DAAF4" fill-rule="evenodd" cx="7.76923077" cy="1.96428571" rx="1.06993007" ry="1.07142857"></ellipse>
                                <g id="编组备份-3" stroke-width="1" fill="none" fill-rule="evenodd" transform="translate(14.188811, 12.142857)">
                                    <path d="M7.48951049,0 C11.6258529,0 14.979021,3.35786438 14.979021,7.5 C14.979021,9.09396432 14.48247,10.5717905 13.6358198,11.7868216 L13.6242218,11.7857143 C13.8360988,11.7857143 14.039159,11.8711523 14.1880889,12.0229626 L18.9474194,16.3460533 C19.2482569,16.6548317 19.3401343,17.1134947 19.183211,17.5172819 C19.0283258,17.9199055 18.6527266,18.1930018 18.2245963,18.2142857 L18.1815033,18.1774289 C17.9093302,18.1685265 17.6506746,18.0558151 17.4578671,17.8620981 L13.1254006,13.2687239 C12.9686278,13.12368 12.8754955,12.9345794 12.8478763,12.7372853 C11.4896687,14.1335731 9.59063051,15 7.48951049,15 C3.35316806,15 0,11.6421356 0,7.5 C0,3.35786438 3.35316806,0 7.48951049,0 Z M7.48951049,1.60714286 C4.23952715,1.60714286 1.6048951,4.24546487 1.6048951,7.5 C1.6048951,10.7545351 4.23952715,13.3928571 7.48951049,13.3928571 C10.7394938,13.3928571 13.3741259,10.7545351 13.3741259,7.5 C13.3741259,4.24546487 10.7394938,1.60714286 7.48951049,1.60714286 Z" id="形状结合" fill="url(#linearGradient-4)" fill-rule="nonzero"></path>
                                </g>
                            </g>
                        </g>
                    </g>
                </g>
            </g>
        </g>
    </g>
</svg>